<svg xmlns="http://www.w3.org/2000/svg" width="512" height="512" viewBox="0 0 512 512" version="1.1"><path d="M 235.046 2.750 C 233.405 4.263, 200.705 52.075, 162.381 109 C 124.057 165.925, 90.005 216.493, 86.710 221.373 C 40.881 289.248, 45.094 379.756, 97.049 443.500 C 104.561 452.717, 120.623 468.125, 130 475.111 C 152.774 492.077, 181.251 504.477, 209 509.510 C 223.324 512.108, 252.625 512.645, 267.002 510.573 C 296.001 506.394, 321.736 496.497, 346.090 480.158 C 400.962 443.344, 432.476 379.026, 427.951 313.086 L 427.167 301.672 433.334 294.806 C 443.686 283.280, 450.482 270.693, 454.642 255.336 C 456.084 250.012, 456.474 245.181, 456.407 233.500 C 456.330 220.261, 456.006 217.467, 453.651 209.703 C 452.183 204.865, 449.621 198.211, 447.958 194.917 C 444.143 187.360, 377.629 88.287, 374.332 85.250 C 371.421 82.569, 365.540 82.233, 362.221 84.558 C 360.997 85.415, 353.869 95.127, 346.380 106.140 C 338.891 117.153, 332.429 125.790, 332.019 125.332 C 331.610 124.874, 312.734 96.938, 290.072 63.250 C 267.411 29.563, 248.029 1.551, 247.001 1 C 243.400 -0.927, 238.214 -0.168, 235.046 2.750 M 170.976 133.548 C 128.348 196.770, 98.047 242.701, 94.291 249.786 C 87.415 262.759, 82.294 277.085, 78.846 293 C 76.866 302.137, 76.570 306.356, 76.570 325.500 C 76.570 344.642, 76.866 348.864, 78.845 358 C 85.336 387.961, 99.350 415.433, 119.479 437.658 C 143.816 464.530, 180.489 484.106, 216.598 489.502 C 229.104 491.371, 252.816 491.636, 264 490.033 C 290.307 486.260, 313.712 477.094, 336.500 461.638 C 350.065 452.437, 369.849 432.257, 379.282 417.999 C 397.500 390.462, 406.803 361.021, 407.296 329.346 C 407.408 322.112, 407.226 315.913, 406.892 315.571 C 406.557 315.229, 404.082 315.895, 401.392 317.050 C 387.066 323.201, 363.714 325.223, 348.637 321.617 C 314.377 313.426, 287.675 286.476, 280.287 252.635 C 278.221 243.174, 278.292 224.622, 280.427 215.500 C 284.124 199.708, 286.424 195.233, 305.206 167.277 L 320.136 145.053 281.932 88.277 C 260.919 57.050, 243.215 30.943, 242.590 30.262 C 241.716 29.311, 225.084 53.300, 170.976 133.548 M 338.125 155.682 C 309.671 197.894, 303.545 208.251, 301.125 218.240 C 294.107 247.204, 307.015 277.441, 333.142 293.239 C 343.778 299.670, 353.544 302.296, 367 302.344 C 380.653 302.392, 387.812 300.715, 399.500 294.731 C 411.096 288.794, 423.304 276.391, 428.852 264.910 C 434.011 254.237, 435.967 245.874, 435.985 234.410 C 436.003 223.779, 433.564 213.042, 429.144 204.286 C 426.525 199.097, 371.541 116.447, 368.615 113.301 C 367.775 112.398, 360.263 122.839, 338.125 155.682 M 322 204.746 C 317.434 207.034, 314.269 213.638, 312.753 224.042 C 309.995 242.963, 317.264 261.751, 332.194 274.290 C 340.478 281.248, 349.639 280.032, 351.801 271.687 C 353.337 265.761, 352.812 264.774, 343.459 256 C 334.103 247.224, 330.680 233.133, 334.819 220.440 C 335.906 217.107, 336.566 213.181, 336.286 211.715 C 335.727 208.792, 331.478 204, 329.445 204 C 328.740 204, 327.564 203.773, 326.832 203.496 C 326.099 203.219, 323.925 203.781, 322 204.746 M 128.500 242.916 C 122.126 245.673, 110.440 265.563, 103.933 284.732 C 98.674 300.224, 97.539 307.882, 97.519 328 C 97.498 348.545, 98.374 354.680, 103.648 370.928 C 114.839 405.402, 139.262 434.147, 171.358 450.620 C 186.556 458.420, 195.437 461.341, 199.689 459.938 C 206.119 457.816, 208.732 451.249, 205.575 445.145 C 204.082 442.259, 202.374 441.266, 192.465 437.528 C 177.309 431.811, 163.981 423.108, 151.936 411.064 C 129.476 388.603, 118 360.684, 118 328.500 C 118 303.788, 124.437 282.481, 137.939 262.500 C 143.080 254.893, 143.468 249.780, 139.214 245.705 C 136.144 242.764, 131.592 241.579, 128.500 242.916 M 365.284 267.705 C 364.065 267.939, 361.928 269.485, 360.534 271.142 C 354.745 278.022, 359.164 288, 368 288 C 374 288, 378 283.866, 378 277.666 C 378 273.882, 377.517 272.772, 374.923 270.589 C 373.231 269.165, 371.468 268, 371.005 268 C 370.542 268, 369.564 267.838, 368.832 267.640 C 368.099 267.443, 366.503 267.472, 365.284 267.705 M 221.150 450.527 C 217.380 453.700, 216.434 457.708, 218.365 462.330 C 221.375 469.535, 230.393 470.887, 235.440 464.889 C 243.493 455.319, 230.717 442.477, 221.150 450.527" stroke="none" fill="#080404" fill-rule="evenodd"/></svg>