<svg xmlns="http://www.w3.org/2000/svg" width="512" height="512" viewBox="0 0 512 512" version="1.1"><path d="" stroke="none" fill="#080404" fill-rule="evenodd"/><path d="M 244.500 25.346 C 233.127 29.112, 224.509 36.601, 219.582 46.997 L 216.500 53.500 216 187.451 L 215.500 321.402 209.500 324.948 C 202.680 328.979, 189.607 341.042, 184.459 348.055 C 178.828 355.726, 173.063 368.299, 170.447 378.610 C 167.535 390.090, 167.128 406.723, 169.485 417.927 C 176.713 452.288, 203.712 479.287, 238.073 486.515 C 249.180 488.852, 265.924 488.464, 277.122 485.610 C 294.941 481.069, 306.792 474.138, 319.669 460.725 C 336.354 443.345, 344 424.126, 344 399.563 C 344 381.457, 339.094 365.527, 328.693 349.857 C 323.764 342.431, 309.838 329.163, 302.428 324.834 L 296.500 321.370 296 187.435 L 295.500 53.500 292.418 46.997 C 288.451 38.627, 281.328 31.517, 273.003 27.619 C 267.519 25.051, 265.089 24.530, 257.500 24.297 C 251.970 24.128, 246.958 24.532, 244.500 25.346 M 249.713 41.400 C 243.459 43.111, 238.114 47.537, 235.004 53.580 L 232.500 58.446 232.208 195.473 L 231.917 332.500 225.700 335.281 C 217.167 339.098, 206.879 347.026, 200.952 354.351 C 189.994 367.894, 184.878 382.321, 184.765 400 C 184.682 412.973, 186.441 420.321, 192.658 432.978 C 201.298 450.567, 217.446 463.554, 237.557 469.085 C 248.518 472.100, 263.486 472.099, 274.455 469.082 C 306.005 460.404, 327.133 432.943, 327.222 400.500 C 327.255 388.203, 325.220 379.165, 320.018 368.500 C 312.867 353.840, 300.433 341.595, 286.286 335.281 L 280.054 332.500 280.027 198.299 C 280.008 105.160, 279.666 62.540, 278.908 59.006 C 276.127 46.039, 262.592 37.877, 249.713 41.400 M 250.174 282.314 C 248.020 284.607, 248 284.985, 248 322.814 C 248 359.229, 247.915 361, 246.160 361 C 242.702 361, 232.011 367.147, 227.334 371.824 C 224.765 374.393, 221.277 379.421, 219.582 382.997 C 216.748 388.977, 216.500 390.345, 216.500 400 C 216.500 409.662, 216.746 411.019, 219.587 417 C 223.509 425.259, 230.644 432.385, 239 436.387 C 245 439.261, 246.307 439.500, 256 439.500 C 265.655 439.500, 267.023 439.252, 273.003 436.418 C 276.668 434.681, 281.651 431.191, 284.421 428.421 C 287.191 425.651, 290.681 420.668, 292.418 417.003 C 295.252 411.023, 295.500 409.655, 295.500 400 C 295.500 390.345, 295.252 388.977, 292.418 382.997 C 290.685 379.341, 287.192 374.350, 284.438 371.596 C 279.714 366.871, 269.362 361.002, 265.750 361.001 C 264.114 361, 264 358.508, 264 322.674 L 264 284.349 261.686 282.174 C 258.514 279.195, 253.043 279.261, 250.174 282.314 M 249.821 377.373 C 229.256 383.008, 226.350 411.099, 245.321 420.862 C 258.835 427.817, 275.719 419.862, 278.897 405.043 C 282.580 387.873, 266.689 372.750, 249.821 377.373" stroke="none" fill="#040404" fill-rule="evenodd"/></svg>